<svg width="1420" height="680" viewBox="0 0 1420 680" fill="none" xmlns="http://www.w3.org/2000/svg">
<path d="M556.464 276L527.664 185.248H550.32L571.056 255.136H561.2L581.68 185.248H599.984L620.464 255.136H610.736L631.472 185.248H654L625.072 276H606.64L586.16 206.24H595.376L575.024 276H556.464ZM686.019 277.408C679.022 277.408 672.835 276.043 667.459 273.312C662.083 270.496 657.859 266.613 654.787 261.664C651.715 256.715 650.179 251.04 650.179 244.64C650.179 238.325 651.672 232.736 654.659 227.872C657.646 222.923 661.699 219.04 666.819 216.224C672.024 213.323 677.87 211.872 684.355 211.872C690.67 211.872 696.259 213.237 701.123 215.968C706.072 218.613 709.912 222.325 712.643 227.104C715.459 231.797 716.867 237.173 716.867 243.232C716.867 244.512 716.782 245.835 716.611 247.2C716.526 248.48 716.27 249.973 715.843 251.68L660.675 251.936V237.6L707.011 237.216L697.027 243.488C696.942 239.989 696.43 237.131 695.491 234.912C694.552 232.608 693.187 230.859 691.395 229.664C689.603 228.469 687.342 227.872 684.611 227.872C681.795 227.872 679.363 228.555 677.315 229.92C675.267 231.285 673.688 233.205 672.579 235.68C671.47 238.155 670.915 241.141 670.915 244.64C670.915 248.224 671.512 251.296 672.707 253.856C673.902 256.331 675.608 258.208 677.827 259.488C680.046 260.768 682.776 261.408 686.019 261.408C689.091 261.408 691.779 260.896 694.083 259.872C696.472 258.848 698.606 257.269 700.483 255.136L712.131 266.784C709.059 270.283 705.304 272.928 700.867 274.72C696.515 276.512 691.566 277.408 686.019 277.408ZM749.086 277.792C745.246 277.792 741.449 277.28 737.694 276.256C734.025 275.232 730.569 273.867 727.326 272.16C724.169 270.368 721.481 268.32 719.262 266.016L731.422 253.6C733.47 255.733 735.902 257.397 738.718 258.592C741.619 259.787 744.691 260.384 747.934 260.384C749.811 260.384 751.219 260.128 752.158 259.616C753.182 259.104 753.694 258.379 753.694 257.44C753.694 256.075 752.969 255.051 751.518 254.368C750.153 253.6 748.318 252.96 746.014 252.448C743.795 251.851 741.449 251.168 738.974 250.4C736.499 249.547 734.11 248.437 731.806 247.072C729.502 245.707 727.625 243.787 726.174 241.312C724.809 238.837 724.126 235.68 724.126 231.84C724.126 227.829 725.193 224.331 727.326 221.344C729.545 218.272 732.617 215.883 736.542 214.176C740.467 212.384 745.075 211.488 750.366 211.488C755.742 211.488 760.862 212.427 765.726 214.304C770.59 216.096 774.515 218.827 777.502 222.496L765.214 234.912C763.166 232.608 760.905 231.029 758.43 230.176C755.955 229.237 753.694 228.768 751.646 228.768C749.683 228.768 748.275 229.067 747.422 229.664C746.569 230.176 746.142 230.901 746.142 231.84C746.142 232.949 746.825 233.845 748.19 234.528C749.641 235.211 751.475 235.851 753.694 236.448C755.998 236.96 758.345 237.643 760.734 238.496C763.209 239.349 765.555 240.544 767.774 242.08C770.078 243.531 771.913 245.493 773.278 247.968C774.729 250.443 775.454 253.643 775.454 257.568C775.454 263.797 773.065 268.747 768.286 272.416C763.507 276 757.107 277.792 749.086 277.792ZM794.104 276V187.552H816.376V276H794.104ZM780.28 231.968V213.408H830.2V231.968H780.28ZM578.096 387.408C571.184 387.408 564.784 386.256 558.896 383.952C553.008 381.563 547.845 378.277 543.408 374.096C539.056 369.829 535.643 364.837 533.168 359.12C530.779 353.403 529.584 347.216 529.584 340.56C529.584 333.819 530.779 327.632 533.168 322C535.643 316.283 539.056 311.333 543.408 307.152C547.845 302.971 552.965 299.685 558.768 297.296C564.656 294.907 571.013 293.712 577.84 293.712C585.008 293.712 591.451 294.864 597.168 297.168C602.885 299.387 607.92 302.501 612.272 306.512L596.912 321.872C594.779 319.483 592.133 317.605 588.976 316.24C585.819 314.875 582.107 314.192 577.84 314.192C574.171 314.192 570.8 314.789 567.728 315.984C564.741 317.179 562.139 318.971 559.92 321.36C557.701 323.664 555.952 326.437 554.672 329.68C553.477 332.923 552.88 336.549 552.88 340.56C552.88 344.571 553.477 348.197 554.672 351.44C555.952 354.683 557.701 357.499 559.92 359.888C562.139 362.192 564.741 363.984 567.728 365.264C570.8 366.459 574.171 367.056 577.84 367.056C582.107 367.056 585.861 366.416 589.104 365.136C592.347 363.771 595.12 361.851 597.424 359.376L612.784 374.736C608.347 378.747 603.312 381.861 597.68 384.08C592.133 386.299 585.605 387.408 578.096 387.408ZM650.751 387.408C644.01 387.408 637.994 386 632.703 383.184C627.498 380.283 623.359 376.357 620.287 371.408C617.215 366.373 615.679 360.741 615.679 354.512C615.679 348.283 617.172 342.736 620.159 337.872C623.231 332.923 627.412 329.04 632.703 326.224C637.994 323.323 643.967 321.872 650.623 321.872C657.279 321.872 663.21 323.323 668.415 326.224C673.706 329.04 677.887 332.923 680.959 337.872C684.031 342.736 685.567 348.283 685.567 354.512C685.567 360.741 684.031 366.373 680.959 371.408C677.972 376.357 673.834 380.283 668.543 383.184C663.338 386 657.407 387.408 650.751 387.408ZM650.623 367.568C653.098 367.568 655.231 367.056 657.023 366.032C658.9 364.923 660.351 363.387 661.375 361.424C662.399 359.461 662.911 357.2 662.911 354.64C662.911 352.08 662.356 349.861 661.247 347.984C660.223 346.021 658.815 344.528 657.023 343.504C655.231 342.395 653.098 341.84 650.623 341.84C648.234 341.84 646.1 342.395 644.223 343.504C642.346 344.613 640.895 346.149 639.871 348.112C638.847 349.989 638.335 352.208 638.335 354.768C638.335 357.243 638.847 359.461 639.871 361.424C640.895 363.387 642.346 364.923 644.223 366.032C646.1 367.056 648.234 367.568 650.623 367.568ZM720.515 387.28C714.712 387.28 709.55 385.872 705.027 383.056C700.504 380.24 696.963 376.4 694.403 371.536C691.843 366.587 690.563 360.997 690.563 354.768C690.563 348.453 691.843 342.821 694.403 337.872C696.963 332.923 700.504 329.083 705.027 326.352C709.55 323.536 714.712 322.128 720.515 322.128C724.44 322.128 728.024 322.853 731.267 324.304C734.51 325.669 737.155 327.632 739.203 330.192C741.336 332.752 742.616 335.653 743.043 338.896V370.384C742.616 373.712 741.336 376.656 739.203 379.216C737.155 381.691 734.51 383.653 731.267 385.104C728.024 386.555 724.44 387.28 720.515 387.28ZM725.251 367.44C728.92 367.44 731.864 366.245 734.083 363.856C736.387 361.467 737.539 358.395 737.539 354.64C737.539 352.165 737.027 349.989 736.003 348.112C734.979 346.235 733.528 344.741 731.651 343.632C729.859 342.523 727.768 341.968 725.379 341.968C722.99 341.968 720.856 342.523 718.979 343.632C717.187 344.741 715.736 346.277 714.627 348.24C713.603 350.117 713.091 352.251 713.091 354.64C713.091 357.115 713.603 359.333 714.627 361.296C715.651 363.173 717.102 364.667 718.979 365.776C720.856 366.885 722.947 367.44 725.251 367.44ZM736.643 386V369.232L739.843 353.872L736.643 338.768V323.408H758.531V386H736.643ZM795.336 387.792C791.496 387.792 787.699 387.28 783.944 386.256C780.275 385.232 776.819 383.867 773.576 382.16C770.419 380.368 767.731 378.32 765.512 376.016L777.672 363.6C779.72 365.733 782.152 367.397 784.968 368.592C787.869 369.787 790.941 370.384 794.184 370.384C796.061 370.384 797.469 370.128 798.408 369.616C799.432 369.104 799.944 368.379 799.944 367.44C799.944 366.075 799.219 365.051 797.768 364.368C796.403 363.6 794.568 362.96 792.264 362.448C790.045 361.851 787.699 361.168 785.224 360.4C782.749 359.547 780.36 358.437 778.056 357.072C775.752 355.707 773.875 353.787 772.424 351.312C771.059 348.837 770.376 345.68 770.376 341.84C770.376 337.829 771.443 334.331 773.576 331.344C775.795 328.272 778.867 325.883 782.792 324.176C786.717 322.384 791.325 321.488 796.616 321.488C801.992 321.488 807.112 322.427 811.976 324.304C816.84 326.096 820.765 328.827 823.752 332.496L811.464 344.912C809.416 342.608 807.155 341.029 804.68 340.176C802.205 339.237 799.944 338.768 797.896 338.768C795.933 338.768 794.525 339.067 793.672 339.664C792.819 340.176 792.392 340.901 792.392 341.84C792.392 342.949 793.075 343.845 794.44 344.528C795.891 345.211 797.725 345.851 799.944 346.448C802.248 346.96 804.595 347.643 806.984 348.496C809.459 349.349 811.805 350.544 814.024 352.08C816.328 353.531 818.163 355.493 819.528 357.968C820.979 360.443 821.704 363.643 821.704 367.568C821.704 373.797 819.315 378.747 814.536 382.416C809.757 386 803.357 387.792 795.336 387.792ZM840.354 386V297.552H862.626V386H840.354ZM826.53 341.968V323.408H876.45V341.968H826.53ZM534.064 496V405.248H556.976V496H534.064ZM612.104 496V460.672C612.104 457.771 611.251 455.509 609.544 453.888C607.837 452.181 605.661 451.328 603.016 451.328C601.224 451.328 599.603 451.712 598.152 452.48C596.787 453.248 595.72 454.315 594.952 455.68C594.184 457.045 593.8 458.709 593.8 460.672L585.096 456.576C585.096 451.541 586.205 447.232 588.424 443.648C590.643 439.979 593.672 437.163 597.512 435.2C601.437 433.152 605.875 432.128 610.824 432.128C615.347 432.128 619.357 433.195 622.856 435.328C626.44 437.376 629.256 440.149 631.304 443.648C633.352 447.147 634.376 451.115 634.376 455.552V496H612.104ZM571.528 496V433.408H593.8V496H571.528ZM664.969 496L639.497 433.408H663.305L679.561 486.144H670.473L686.601 433.408H710.153L684.681 496H664.969ZM716.4 496V433.408H738.8V496H716.4ZM727.536 426.112C724.208 426.112 721.435 425.003 719.216 422.784C716.997 420.48 715.888 417.621 715.888 414.208C715.888 410.88 716.997 408.064 719.216 405.76C721.435 403.456 724.208 402.304 727.536 402.304C731.035 402.304 733.851 403.456 735.984 405.76C738.203 408.064 739.312 410.88 739.312 414.208C739.312 417.621 738.203 420.48 735.984 422.784C733.851 425.003 731.035 426.112 727.536 426.112ZM760.354 496V407.552H782.626V496H760.354ZM746.53 451.968V433.408H796.45V451.968H746.53ZM829.39 497.28C823.587 497.28 818.425 495.872 813.902 493.056C809.379 490.24 805.838 486.4 803.278 481.536C800.718 476.587 799.438 470.997 799.438 464.768C799.438 458.453 800.718 452.821 803.278 447.872C805.838 442.923 809.379 439.083 813.902 436.352C818.425 433.536 823.587 432.128 829.39 432.128C833.315 432.128 836.899 432.853 840.142 434.304C843.385 435.669 846.03 437.632 848.078 440.192C850.211 442.752 851.491 445.653 851.918 448.896V480.384C851.491 483.712 850.211 486.656 848.078 489.216C846.03 491.691 843.385 493.653 840.142 495.104C836.899 496.555 833.315 497.28 829.39 497.28ZM834.126 477.44C837.795 477.44 840.739 476.245 842.958 473.856C845.262 471.467 846.414 468.395 846.414 464.64C846.414 462.165 845.902 459.989 844.878 458.112C843.854 456.235 842.403 454.741 840.526 453.632C838.734 452.523 836.643 451.968 834.254 451.968C831.865 451.968 829.731 452.523 827.854 453.632C826.062 454.741 824.611 456.277 823.502 458.24C822.478 460.117 821.966 462.251 821.966 464.64C821.966 467.115 822.478 469.333 823.502 471.296C824.526 473.173 825.977 474.667 827.854 475.776C829.731 476.885 831.822 477.44 834.126 477.44ZM845.518 496V479.232L848.718 463.872L845.518 448.768V433.408H867.406V496H845.518ZM888.979 496V407.552H911.251V496H888.979ZM875.155 451.968V433.408H925.075V451.968H875.155ZM932.775 496V433.408H955.175V496H932.775ZM943.911 426.112C940.583 426.112 937.81 425.003 935.591 422.784C933.372 420.48 932.263 417.621 932.263 414.208C932.263 410.88 933.372 408.064 935.591 405.76C937.81 403.456 940.583 402.304 943.911 402.304C947.41 402.304 950.226 403.456 952.359 405.76C954.578 408.064 955.687 410.88 955.687 414.208C955.687 417.621 954.578 420.48 952.359 422.784C950.226 425.003 947.41 426.112 943.911 426.112ZM999.001 497.408C992.26 497.408 986.244 496 980.953 493.184C975.748 490.283 971.609 486.357 968.537 481.408C965.465 476.373 963.929 470.741 963.929 464.512C963.929 458.283 965.422 452.736 968.409 447.872C971.481 442.923 975.662 439.04 980.953 436.224C986.244 433.323 992.217 431.872 998.873 431.872C1005.53 431.872 1011.46 433.323 1016.67 436.224C1021.96 439.04 1026.14 442.923 1029.21 447.872C1032.28 452.736 1033.82 458.283 1033.82 464.512C1033.82 470.741 1032.28 476.373 1029.21 481.408C1026.22 486.357 1022.08 490.283 1016.79 493.184C1011.59 496 1005.66 497.408 999.001 497.408ZM998.873 477.568C1001.35 477.568 1003.48 477.056 1005.27 476.032C1007.15 474.923 1008.6 473.387 1009.63 471.424C1010.65 469.461 1011.16 467.2 1011.16 464.64C1011.16 462.08 1010.61 459.861 1009.5 457.984C1008.47 456.021 1007.07 454.528 1005.27 453.504C1003.48 452.395 1001.35 451.84 998.873 451.84C996.484 451.84 994.35 452.395 992.473 453.504C990.596 454.613 989.145 456.149 988.121 458.112C987.097 459.989 986.585 462.208 986.585 464.768C986.585 467.243 987.097 469.461 988.121 471.424C989.145 473.387 990.596 474.923 992.473 476.032C994.35 477.056 996.484 477.568 998.873 477.568ZM1083.23 496V460.672C1083.23 457.771 1082.38 455.509 1080.67 453.888C1078.96 452.181 1076.79 451.328 1074.14 451.328C1072.35 451.328 1070.73 451.712 1069.28 452.48C1067.91 453.248 1066.85 454.315 1066.08 455.68C1065.31 457.045 1064.93 458.709 1064.93 460.672L1056.22 456.576C1056.22 451.541 1057.33 447.232 1059.55 443.648C1061.77 439.979 1064.8 437.163 1068.64 435.2C1072.56 433.152 1077 432.128 1081.95 432.128C1086.47 432.128 1090.48 433.195 1093.98 435.328C1097.57 437.376 1100.38 440.149 1102.43 443.648C1104.48 447.147 1105.5 451.115 1105.5 455.552V496H1083.23ZM1042.65 496V433.408H1064.93V496H1042.65ZM1143.39 497.28C1137.59 497.28 1132.42 495.872 1127.9 493.056C1123.38 490.24 1119.84 486.4 1117.28 481.536C1114.72 476.587 1113.44 470.997 1113.44 464.768C1113.44 458.453 1114.72 452.821 1117.28 447.872C1119.84 442.923 1123.38 439.083 1127.9 436.352C1132.42 433.536 1137.59 432.128 1143.39 432.128C1147.32 432.128 1150.9 432.853 1154.14 434.304C1157.38 435.669 1160.03 437.632 1162.08 440.192C1164.21 442.752 1165.49 445.653 1165.92 448.896V480.384C1165.49 483.712 1164.21 486.656 1162.08 489.216C1160.03 491.691 1157.38 493.653 1154.14 495.104C1150.9 496.555 1147.32 497.28 1143.39 497.28ZM1148.13 477.44C1151.8 477.44 1154.74 476.245 1156.96 473.856C1159.26 471.467 1160.41 468.395 1160.41 464.64C1160.41 462.165 1159.9 459.989 1158.88 458.112C1157.85 456.235 1156.4 454.741 1154.53 453.632C1152.73 452.523 1150.64 451.968 1148.25 451.968C1145.86 451.968 1143.73 452.523 1141.85 453.632C1140.06 454.741 1138.61 456.277 1137.5 458.24C1136.48 460.117 1135.97 462.251 1135.97 464.64C1135.97 467.115 1136.48 469.333 1137.5 471.296C1138.53 473.173 1139.98 474.667 1141.85 475.776C1143.73 476.885 1145.82 477.44 1148.13 477.44ZM1159.52 496V479.232L1162.72 463.872L1159.52 448.768V433.408H1181.41V496H1159.52ZM1194.4 496V402.688H1216.68V496H1194.4Z" fill="black"/>
<g clip-path="url(#clip0_36_2)">
<mask id="mask0_36_2" style="mask-type:luminance" maskUnits="userSpaceOnUse" x="196" y="185" width="310" height="310">
<path d="M351 185C381.656 185 411.624 194.091 437.113 211.122C462.603 228.154 482.47 252.362 494.201 280.684C505.933 309.007 509.002 340.172 503.022 370.239C497.041 400.306 482.279 427.924 460.602 449.602C438.924 471.279 411.306 486.041 381.239 492.022C351.172 498.002 320.007 494.933 291.684 483.201C263.362 471.47 239.154 451.603 222.122 426.113C205.091 400.624 196 370.656 196 340C196 298.891 212.33 259.467 241.398 230.398C270.467 201.33 309.891 185 351 185Z" fill="white"/>
</mask>
<g mask="url(#mask0_36_2)">
<rect x="348.337" y="247.852" width="209.863" height="174.708" fill="#E5727B"/>
<path d="M335.553 299.927L402.027 284.072C402.027 284.072 446.583 309.153 478.089 311.342C505.107 313.219 546.481 299.927 546.481 299.927V473.694H335.553V299.927Z" fill="#C4646F"/>
<path d="M335.553 361.665L411.615 341.598C411.615 341.598 452.267 357.797 479.368 361.665C505.382 365.378 546.481 361.665 546.481 361.665V565.309H335.553V361.665Z" fill="#AC536B"/>
<path d="M292.941 387.232L369.003 367.165C369.003 367.165 409.655 383.364 436.756 387.232C462.77 390.945 503.869 387.232 503.869 387.232V590.876H292.941V387.232Z" fill="#894566"/>
<path d="M271.636 406.407L347.698 386.34C347.698 386.34 388.35 402.539 415.45 406.407C441.464 410.121 482.564 406.407 482.564 406.407V610.052H271.636V406.407Z" fill="#643759"/>
<mask id="mask1_36_2" style="mask-type:alpha" maskUnits="userSpaceOnUse" x="343" y="277" width="123" height="123">
<circle cx="404.5" cy="338.5" r="61.5" fill="#FF782A"/>
</mask>
<g mask="url(#mask1_36_2)">
<circle cx="404.5" cy="338.5" r="61.5" fill="#F77E4A"/>
<circle cx="404.5" cy="317.878" r="61.5" fill="#FFA454"/>
</g>
<path d="M684.869 202.274L699.516 387.795L669.424 493.098C669.424 493.098 678.723 368.646 649.113 311.14C614.184 243.31 541.116 222.126 452.612 258.488C373.885 290.829 340.263 348.986 347.2 420.817C342.732 465.034 419.983 565.945 416.794 584.281C406.926 641.006 288.94 608.766 288.94 608.766L182.151 580.152L310.297 101.907L684.869 202.274Z" fill="#3F425E"/>
<path d="M535.418 64.732L640.864 218.075L667.455 324.316C667.455 324.316 613.281 211.888 558.885 176.892C494.721 135.613 420.85 153.801 362.385 229.544C310.375 296.916 310.337 364.092 352.26 422.83C370.499 463.358 487.855 512.124 494.261 529.598C514.078 583.657 395.779 614.729 395.779 614.729L288.991 643.343L160.845 165.098L535.418 64.732Z" fill="#3B557B"/>
<path d="M296.978 126.156L428.722 170.358L492.267 221.833C492.267 221.833 409.484 179.043 361.314 182.565C304.496 186.722 268.569 230.726 267.664 302.167C266.856 365.716 296.978 405.825 348.357 422.07C377.429 438.073 469.354 414.515 481.018 422.07C517.104 445.441 460.443 517.071 460.443 517.071L409.549 582.069L118.461 354.143L296.978 126.156Z" fill="#2E7596"/>
<path d="M166.39 248.145L287.346 184.464L367.138 174.237C367.138 174.237 280.452 204.049 250.229 240.708C214.581 283.949 221.472 339.403 271.676 388.588C316.331 432.341 384.756 427.532 415.893 417.726C447.03 407.919 491.062 384.759 504.362 381.595C545.505 371.805 555.529 397.475 555.529 397.475L567.184 477.841L207.271 530.038L166.39 248.145Z" fill="#2B94BA"/>
<path d="M351 197.109C272.21 197.109 208.109 261.21 208.109 340C208.109 418.79 272.21 482.891 351 482.891C429.79 482.891 493.891 418.79 493.891 340C493.891 261.21 429.79 197.109 351 197.109ZM351 185C436.604 185 506 254.396 506 340C506 425.604 436.604 495 351 495C265.396 495 196 425.604 196 340C196 254.396 265.396 185 351 185Z" fill="#2B94BA"/>
<path d="M167.543 266.311C167.543 266.311 188.393 248.725 193.827 263.238C208.59 302.679 203.88 390.746 306.853 430.585C409.826 470.424 470.092 394.566 499.367 389.955C530.389 385.069 550.822 412.796 550.822 412.796L560.251 493.451L199.036 535.681L167.543 266.311Z" fill="#29B4DD"/>
</g>
</g>
<defs>
<clipPath id="clip0_36_2">
<rect width="310" height="310" fill="white" transform="translate(196 185)"/>
</clipPath>
</defs>
</svg>
