<?xml version="1.0" encoding="UTF-8" standalone="no"?>
<svg
   width="1420"
   height="680"
   viewBox="0 0 1420 680"
   fill="none"
   version="1.1"
   id="svg15"
   sodipodi:docname="v3_wci_25_svg.svg"
   inkscape:export-filename="v3_wci_25_whitetext.png"
   inkscape:export-xdpi="197.53087"
   inkscape:export-ydpi="197.53087"
   inkscape:version="1.4 (e7c3feb100, 2024-10-09)"
   xmlns:inkscape="http://www.inkscape.org/namespaces/inkscape"
   xmlns:sodipodi="http://sodipodi.sourceforge.net/DTD/sodipodi-0.dtd"
   xmlns="http://www.w3.org/2000/svg"
   xmlns:svg="http://www.w3.org/2000/svg">
  <sodipodi:namedview
     id="namedview15"
     pagecolor="#ffffff"
     bordercolor="#cccccc"
     borderopacity="1"
     inkscape:showpageshadow="0"
     inkscape:pageopacity="1"
     inkscape:pagecheckerboard="0"
     inkscape:deskcolor="#d1d1d1"
     inkscape:zoom="0.61720819"
     inkscape:cx="698.3057"
     inkscape:cy="256.80152"
     inkscape:window-width="1920"
     inkscape:window-height="1008"
     inkscape:window-x="0"
     inkscape:window-y="0"
     inkscape:window-maximized="1"
     inkscape:current-layer="svg15" />
  <path
     d="M461.464 276L432.664 185.248H455.32L476.056 255.136H466.2L486.68 185.248H504.984L525.464 255.136H515.736L536.472 185.248H559L530.072 276H511.64L491.16 206.24H500.376L480.024 276H461.464ZM591.019 277.408C584.022 277.408 577.835 276.043 572.459 273.312C567.083 270.496 562.859 266.613 559.787 261.664C556.715 256.715 555.179 251.04 555.179 244.64C555.179 238.325 556.672 232.736 559.659 227.872C562.646 222.923 566.699 219.04 571.819 216.224C577.024 213.323 582.87 211.872 589.355 211.872C595.67 211.872 601.259 213.237 606.123 215.968C611.072 218.613 614.912 222.325 617.643 227.104C620.459 231.797 621.867 237.173 621.867 243.232C621.867 244.512 621.782 245.835 621.611 247.2C621.526 248.48 621.27 249.973 620.843 251.68L565.675 251.936V237.6L612.011 237.216L602.027 243.488C601.942 239.989 601.43 237.131 600.491 234.912C599.552 232.608 598.187 230.859 596.395 229.664C594.603 228.469 592.342 227.872 589.611 227.872C586.795 227.872 584.363 228.555 582.315 229.92C580.267 231.285 578.688 233.205 577.579 235.68C576.47 238.155 575.915 241.141 575.915 244.64C575.915 248.224 576.512 251.296 577.707 253.856C578.902 256.331 580.608 258.208 582.827 259.488C585.046 260.768 587.776 261.408 591.019 261.408C594.091 261.408 596.779 260.896 599.083 259.872C601.472 258.848 603.606 257.269 605.483 255.136L617.131 266.784C614.059 270.283 610.304 272.928 605.867 274.72C601.515 276.512 596.566 277.408 591.019 277.408ZM654.086 277.792C650.246 277.792 646.449 277.28 642.694 276.256C639.025 275.232 635.569 273.867 632.326 272.16C629.169 270.368 626.481 268.32 624.262 266.016L636.422 253.6C638.47 255.733 640.902 257.397 643.718 258.592C646.619 259.787 649.691 260.384 652.934 260.384C654.811 260.384 656.219 260.128 657.158 259.616C658.182 259.104 658.694 258.379 658.694 257.44C658.694 256.075 657.969 255.051 656.518 254.368C655.153 253.6 653.318 252.96 651.014 252.448C648.795 251.851 646.449 251.168 643.974 250.4C641.499 249.547 639.11 248.437 636.806 247.072C634.502 245.707 632.625 243.787 631.174 241.312C629.809 238.837 629.126 235.68 629.126 231.84C629.126 227.829 630.193 224.331 632.326 221.344C634.545 218.272 637.617 215.883 641.542 214.176C645.467 212.384 650.075 211.488 655.366 211.488C660.742 211.488 665.862 212.427 670.726 214.304C675.59 216.096 679.515 218.827 682.502 222.496L670.214 234.912C668.166 232.608 665.905 231.029 663.43 230.176C660.955 229.237 658.694 228.768 656.646 228.768C654.683 228.768 653.275 229.067 652.422 229.664C651.569 230.176 651.142 230.901 651.142 231.84C651.142 232.949 651.825 233.845 653.19 234.528C654.641 235.211 656.475 235.851 658.694 236.448C660.998 236.96 663.345 237.643 665.734 238.496C668.209 239.349 670.555 240.544 672.774 242.08C675.078 243.531 676.913 245.493 678.278 247.968C679.729 250.443 680.454 253.643 680.454 257.568C680.454 263.797 678.065 268.747 673.286 272.416C668.507 276 662.107 277.792 654.086 277.792ZM699.104 276V187.552H721.376V276H699.104ZM685.28 231.968V213.408H735.2V231.968H685.28ZM483.096 387.408C476.184 387.408 469.784 386.256 463.896 383.952C458.008 381.563 452.845 378.277 448.408 374.096C444.056 369.829 440.643 364.837 438.168 359.12C435.779 353.403 434.584 347.216 434.584 340.56C434.584 333.819 435.779 327.632 438.168 322C440.643 316.283 444.056 311.333 448.408 307.152C452.845 302.971 457.965 299.685 463.768 297.296C469.656 294.907 476.013 293.712 482.84 293.712C490.008 293.712 496.451 294.864 502.168 297.168C507.885 299.387 512.92 302.501 517.272 306.512L501.912 321.872C499.779 319.483 497.133 317.605 493.976 316.24C490.819 314.875 487.107 314.192 482.84 314.192C479.171 314.192 475.8 314.789 472.728 315.984C469.741 317.179 467.139 318.971 464.92 321.36C462.701 323.664 460.952 326.437 459.672 329.68C458.477 332.923 457.88 336.549 457.88 340.56C457.88 344.571 458.477 348.197 459.672 351.44C460.952 354.683 462.701 357.499 464.92 359.888C467.139 362.192 469.741 363.984 472.728 365.264C475.8 366.459 479.171 367.056 482.84 367.056C487.107 367.056 490.861 366.416 494.104 365.136C497.347 363.771 500.12 361.851 502.424 359.376L517.784 374.736C513.347 378.747 508.312 381.861 502.68 384.08C497.133 386.299 490.605 387.408 483.096 387.408ZM555.751 387.408C549.01 387.408 542.994 386 537.703 383.184C532.498 380.283 528.359 376.357 525.287 371.408C522.215 366.373 520.679 360.741 520.679 354.512C520.679 348.283 522.172 342.736 525.159 337.872C528.231 332.923 532.412 329.04 537.703 326.224C542.994 323.323 548.967 321.872 555.623 321.872C562.279 321.872 568.21 323.323 573.415 326.224C578.706 329.04 582.887 332.923 585.959 337.872C589.031 342.736 590.567 348.283 590.567 354.512C590.567 360.741 589.031 366.373 585.959 371.408C582.972 376.357 578.834 380.283 573.543 383.184C568.338 386 562.407 387.408 555.751 387.408ZM555.623 367.568C558.098 367.568 560.231 367.056 562.023 366.032C563.9 364.923 565.351 363.387 566.375 361.424C567.399 359.461 567.911 357.2 567.911 354.64C567.911 352.08 567.356 349.861 566.247 347.984C565.223 346.021 563.815 344.528 562.023 343.504C560.231 342.395 558.098 341.84 555.623 341.84C553.234 341.84 551.1 342.395 549.223 343.504C547.346 344.613 545.895 346.149 544.871 348.112C543.847 349.989 543.335 352.208 543.335 354.768C543.335 357.243 543.847 359.461 544.871 361.424C545.895 363.387 547.346 364.923 549.223 366.032C551.1 367.056 553.234 367.568 555.623 367.568ZM625.515 387.28C619.712 387.28 614.55 385.872 610.027 383.056C605.504 380.24 601.963 376.4 599.403 371.536C596.843 366.587 595.563 360.997 595.563 354.768C595.563 348.453 596.843 342.821 599.403 337.872C601.963 332.923 605.504 329.083 610.027 326.352C614.55 323.536 619.712 322.128 625.515 322.128C629.44 322.128 633.024 322.853 636.267 324.304C639.51 325.669 642.155 327.632 644.203 330.192C646.336 332.752 647.616 335.653 648.043 338.896V370.384C647.616 373.712 646.336 376.656 644.203 379.216C642.155 381.691 639.51 383.653 636.267 385.104C633.024 386.555 629.44 387.28 625.515 387.28ZM630.251 367.44C633.92 367.44 636.864 366.245 639.083 363.856C641.387 361.467 642.539 358.395 642.539 354.64C642.539 352.165 642.027 349.989 641.003 348.112C639.979 346.235 638.528 344.741 636.651 343.632C634.859 342.523 632.768 341.968 630.379 341.968C627.99 341.968 625.856 342.523 623.979 343.632C622.187 344.741 620.736 346.277 619.627 348.24C618.603 350.117 618.091 352.251 618.091 354.64C618.091 357.115 618.603 359.333 619.627 361.296C620.651 363.173 622.102 364.667 623.979 365.776C625.856 366.885 627.947 367.44 630.251 367.44ZM641.643 386V369.232L644.843 353.872L641.643 338.768V323.408H663.531V386H641.643ZM700.336 387.792C696.496 387.792 692.699 387.28 688.944 386.256C685.275 385.232 681.819 383.867 678.576 382.16C675.419 380.368 672.731 378.32 670.512 376.016L682.672 363.6C684.72 365.733 687.152 367.397 689.968 368.592C692.869 369.787 695.941 370.384 699.184 370.384C701.061 370.384 702.469 370.128 703.408 369.616C704.432 369.104 704.944 368.379 704.944 367.44C704.944 366.075 704.219 365.051 702.768 364.368C701.403 363.6 699.568 362.96 697.264 362.448C695.045 361.851 692.699 361.168 690.224 360.4C687.749 359.547 685.36 358.437 683.056 357.072C680.752 355.707 678.875 353.787 677.424 351.312C676.059 348.837 675.376 345.68 675.376 341.84C675.376 337.829 676.443 334.331 678.576 331.344C680.795 328.272 683.867 325.883 687.792 324.176C691.717 322.384 696.325 321.488 701.616 321.488C706.992 321.488 712.112 322.427 716.976 324.304C721.84 326.096 725.765 328.827 728.752 332.496L716.464 344.912C714.416 342.608 712.155 341.029 709.68 340.176C707.205 339.237 704.944 338.768 702.896 338.768C700.933 338.768 699.525 339.067 698.672 339.664C697.819 340.176 697.392 340.901 697.392 341.84C697.392 342.949 698.075 343.845 699.44 344.528C700.891 345.211 702.725 345.851 704.944 346.448C707.248 346.96 709.595 347.643 711.984 348.496C714.459 349.349 716.805 350.544 719.024 352.08C721.328 353.531 723.163 355.493 724.528 357.968C725.979 360.443 726.704 363.643 726.704 367.568C726.704 373.797 724.315 378.747 719.536 382.416C714.757 386 708.357 387.792 700.336 387.792ZM745.354 386V297.552H767.626V386H745.354ZM731.53 341.968V323.408H781.45V341.968H731.53ZM439.064 496V405.248H461.976V496H439.064ZM517.104 496V460.672C517.104 457.771 516.251 455.509 514.544 453.888C512.837 452.181 510.661 451.328 508.016 451.328C506.224 451.328 504.603 451.712 503.152 452.48C501.787 453.248 500.72 454.315 499.952 455.68C499.184 457.045 498.8 458.709 498.8 460.672L490.096 456.576C490.096 451.541 491.205 447.232 493.424 443.648C495.643 439.979 498.672 437.163 502.512 435.2C506.437 433.152 510.875 432.128 515.824 432.128C520.347 432.128 524.357 433.195 527.856 435.328C531.44 437.376 534.256 440.149 536.304 443.648C538.352 447.147 539.376 451.115 539.376 455.552V496H517.104ZM476.528 496V433.408H498.8V496H476.528ZM569.969 496L544.497 433.408H568.305L584.561 486.144H575.473L591.601 433.408H615.153L589.681 496H569.969ZM621.4 496V433.408H643.8V496H621.4ZM632.536 426.112C629.208 426.112 626.435 425.003 624.216 422.784C621.997 420.48 620.888 417.621 620.888 414.208C620.888 410.88 621.997 408.064 624.216 405.76C626.435 403.456 629.208 402.304 632.536 402.304C636.035 402.304 638.851 403.456 640.984 405.76C643.203 408.064 644.312 410.88 644.312 414.208C644.312 417.621 643.203 420.48 640.984 422.784C638.851 425.003 636.035 426.112 632.536 426.112ZM665.354 496V407.552H687.626V496H665.354ZM651.53 451.968V433.408H701.45V451.968H651.53ZM734.39 497.28C728.587 497.28 723.425 495.872 718.902 493.056C714.379 490.24 710.838 486.4 708.278 481.536C705.718 476.587 704.438 470.997 704.438 464.768C704.438 458.453 705.718 452.821 708.278 447.872C710.838 442.923 714.379 439.083 718.902 436.352C723.425 433.536 728.587 432.128 734.39 432.128C738.315 432.128 741.899 432.853 745.142 434.304C748.385 435.669 751.03 437.632 753.078 440.192C755.211 442.752 756.491 445.653 756.918 448.896V480.384C756.491 483.712 755.211 486.656 753.078 489.216C751.03 491.691 748.385 493.653 745.142 495.104C741.899 496.555 738.315 497.28 734.39 497.28ZM739.126 477.44C742.795 477.44 745.739 476.245 747.958 473.856C750.262 471.467 751.414 468.395 751.414 464.64C751.414 462.165 750.902 459.989 749.878 458.112C748.854 456.235 747.403 454.741 745.526 453.632C743.734 452.523 741.643 451.968 739.254 451.968C736.865 451.968 734.731 452.523 732.854 453.632C731.062 454.741 729.611 456.277 728.502 458.24C727.478 460.117 726.966 462.251 726.966 464.64C726.966 467.115 727.478 469.333 728.502 471.296C729.526 473.173 730.977 474.667 732.854 475.776C734.731 476.885 736.822 477.44 739.126 477.44ZM750.518 496V479.232L753.718 463.872L750.518 448.768V433.408H772.406V496H750.518ZM793.979 496V407.552H816.251V496H793.979ZM780.155 451.968V433.408H830.075V451.968H780.155ZM837.775 496V433.408H860.175V496H837.775ZM848.911 426.112C845.583 426.112 842.81 425.003 840.591 422.784C838.372 420.48 837.263 417.621 837.263 414.208C837.263 410.88 838.372 408.064 840.591 405.76C842.81 403.456 845.583 402.304 848.911 402.304C852.41 402.304 855.226 403.456 857.359 405.76C859.578 408.064 860.687 410.88 860.687 414.208C860.687 417.621 859.578 420.48 857.359 422.784C855.226 425.003 852.41 426.112 848.911 426.112ZM904.001 497.408C897.26 497.408 891.244 496 885.953 493.184C880.748 490.283 876.609 486.357 873.537 481.408C870.465 476.373 868.929 470.741 868.929 464.512C868.929 458.283 870.422 452.736 873.409 447.872C876.481 442.923 880.662 439.04 885.953 436.224C891.244 433.323 897.217 431.872 903.873 431.872C910.529 431.872 916.46 433.323 921.665 436.224C926.956 439.04 931.137 442.923 934.209 447.872C937.281 452.736 938.817 458.283 938.817 464.512C938.817 470.741 937.281 476.373 934.209 481.408C931.222 486.357 927.084 490.283 921.793 493.184C916.588 496 910.657 497.408 904.001 497.408ZM903.873 477.568C906.348 477.568 908.481 477.056 910.273 476.032C912.15 474.923 913.601 473.387 914.625 471.424C915.649 469.461 916.161 467.2 916.161 464.64C916.161 462.08 915.606 459.861 914.497 457.984C913.473 456.021 912.065 454.528 910.273 453.504C908.481 452.395 906.348 451.84 903.873 451.84C901.484 451.84 899.35 452.395 897.473 453.504C895.596 454.613 894.145 456.149 893.121 458.112C892.097 459.989 891.585 462.208 891.585 464.768C891.585 467.243 892.097 469.461 893.121 471.424C894.145 473.387 895.596 474.923 897.473 476.032C899.35 477.056 901.484 477.568 903.873 477.568ZM988.229 496V460.672C988.229 457.771 987.376 455.509 985.669 453.888C983.962 452.181 981.786 451.328 979.141 451.328C977.349 451.328 975.728 451.712 974.277 452.48C972.912 453.248 971.845 454.315 971.077 455.68C970.309 457.045 969.925 458.709 969.925 460.672L961.221 456.576C961.221 451.541 962.33 447.232 964.549 443.648C966.768 439.979 969.797 437.163 973.637 435.2C977.562 433.152 982 432.128 986.949 432.128C991.472 432.128 995.482 433.195 998.981 435.328C1002.57 437.376 1005.38 440.149 1007.43 443.648C1009.48 447.147 1010.5 451.115 1010.5 455.552V496H988.229ZM947.653 496V433.408H969.925V496H947.653ZM1048.39 497.28C1042.59 497.28 1037.42 495.872 1032.9 493.056C1028.38 490.24 1024.84 486.4 1022.28 481.536C1019.72 476.587 1018.44 470.997 1018.44 464.768C1018.44 458.453 1019.72 452.821 1022.28 447.872C1024.84 442.923 1028.38 439.083 1032.9 436.352C1037.42 433.536 1042.59 432.128 1048.39 432.128C1052.32 432.128 1055.9 432.853 1059.14 434.304C1062.38 435.669 1065.03 437.632 1067.08 440.192C1069.21 442.752 1070.49 445.653 1070.92 448.896V480.384C1070.49 483.712 1069.21 486.656 1067.08 489.216C1065.03 491.691 1062.38 493.653 1059.14 495.104C1055.9 496.555 1052.32 497.28 1048.39 497.28ZM1053.13 477.44C1056.8 477.44 1059.74 476.245 1061.96 473.856C1064.26 471.467 1065.41 468.395 1065.41 464.64C1065.41 462.165 1064.9 459.989 1063.88 458.112C1062.85 456.235 1061.4 454.741 1059.53 453.632C1057.73 452.523 1055.64 451.968 1053.25 451.968C1050.86 451.968 1048.73 452.523 1046.85 453.632C1045.06 454.741 1043.61 456.277 1042.5 458.24C1041.48 460.117 1040.97 462.251 1040.97 464.64C1040.97 467.115 1041.48 469.333 1042.5 471.296C1043.53 473.173 1044.98 474.667 1046.85 475.776C1048.73 476.885 1050.82 477.44 1053.13 477.44ZM1064.52 496V479.232L1067.72 463.872L1064.52 448.768V433.408H1086.41V496H1064.52ZM1099.4 496V402.688H1121.68V496H1099.4Z"
     fill="black"
     id="path1"
     style="fill:#000000;fill-opacity:1;stroke:none;stroke-opacity:1;stroke-width:3.70000033;stroke-dasharray:none" />
  <path
     d="M1167.93 407.04L1158.33 425.216L1151.93 426.88C1152.61 425.6 1153.42 424.491 1154.36 423.552C1155.38 422.613 1156.45 422.144 1157.56 422.144C1160.29 422.144 1162.77 423.253 1164.98 425.472C1167.2 427.691 1168.31 430.549 1168.31 434.048C1168.31 437.632 1167.07 440.747 1164.6 443.392C1162.21 445.952 1159.18 447.232 1155.51 447.232C1152.01 447.232 1148.98 445.952 1146.42 443.392C1143.86 440.832 1142.58 437.717 1142.58 434.048C1142.58 432.512 1142.84 430.763 1143.35 428.8C1143.95 426.837 1145.1 424.277 1146.81 421.12L1157.56 401.408L1167.93 407.04ZM1175.82 483.584L1211.4 447.36C1213.11 445.483 1214.51 443.819 1215.62 442.368C1216.73 440.832 1217.5 439.424 1217.93 438.144C1218.44 436.779 1218.7 435.371 1218.7 433.92C1218.7 430.677 1217.63 428.117 1215.5 426.24C1213.45 424.363 1210.72 423.424 1207.3 423.424C1204.06 423.424 1201.12 424.363 1198.47 426.24C1195.83 428.032 1193.1 431.061 1190.28 435.328L1175.3 422.016C1178.97 416.043 1183.67 411.52 1189.38 408.448C1195.1 405.291 1201.67 403.712 1209.1 403.712C1215.67 403.712 1221.34 404.907 1226.12 407.296C1230.9 409.685 1234.57 413.099 1237.13 417.536C1239.77 421.888 1241.1 427.051 1241.1 433.024C1241.1 436.608 1240.63 439.936 1239.69 443.008C1238.75 445.995 1237.26 448.981 1235.21 451.968C1233.16 454.869 1230.43 457.941 1227.02 461.184L1203.46 484.096L1175.82 483.584ZM1175.82 496V483.584L1194.89 476.928H1243.02V496H1175.82ZM1279.65 497.408C1273.42 497.408 1267.44 496.341 1261.73 494.208C1256.09 491.989 1251.44 488.875 1247.77 484.864L1262.37 470.528C1263.9 472.747 1266.16 474.581 1269.15 476.032C1272.22 477.397 1275.42 478.08 1278.75 478.08C1281.74 478.08 1284.3 477.568 1286.43 476.544C1288.65 475.435 1290.36 473.941 1291.55 472.064C1292.83 470.101 1293.47 467.797 1293.47 465.152C1293.47 462.507 1292.83 460.203 1291.55 458.24C1290.36 456.277 1288.61 454.741 1286.3 453.632C1284 452.523 1281.22 451.968 1277.98 451.968C1275.08 451.968 1272.39 452.395 1269.92 453.248C1267.53 454.016 1265.35 455.125 1263.39 456.576L1265.57 441.984C1267.87 440.619 1269.92 439.467 1271.71 438.528C1273.5 437.589 1275.38 436.907 1277.34 436.48C1279.39 436.053 1281.78 435.84 1284.51 435.84C1291.42 435.84 1297.18 437.248 1301.79 440.064C1306.48 442.795 1310.02 446.464 1312.41 451.072C1314.8 455.595 1316 460.587 1316 466.048C1316 472.192 1314.5 477.653 1311.52 482.432C1308.53 487.125 1304.31 490.795 1298.85 493.44C1293.47 496.085 1287.07 497.408 1279.65 497.408ZM1263.39 456.576L1254.43 448.384L1258.91 405.248H1279.39L1274.65 446.976L1263.39 456.576ZM1261.73 424.32L1258.91 405.248H1311.01V424.32H1261.73Z"
     fill="black"
     id="path2"
     style="fill:#000000;fill-opacity:1;stroke:none;stroke-opacity:1;stroke-width:3.70000033;stroke-dasharray:none" />
  <g
     clip-path="url(#clip0_36_53)"
     id="g15">
    <mask
       id="mask0_36_53"
       style="mask-type:luminance"
       maskUnits="userSpaceOnUse"
       x="101"
       y="185"
       width="310"
       height="311">
      <path
         d="M256 185C286.656 185 316.624 194.091 342.113 211.122C367.603 228.154 387.47 252.362 399.201 280.684C410.933 309.007 414.002 340.172 408.022 370.239C402.041 400.306 387.279 427.924 365.602 449.602C343.924 471.279 316.306 486.041 286.239 492.022C256.172 498.002 225.007 494.933 196.684 483.201C168.362 471.47 144.154 451.603 127.122 426.113C110.091 400.624 101 370.656 101 340C101 298.891 117.33 259.467 146.398 230.398C175.467 201.33 214.891 185 256 185Z"
         fill="white"
         id="path3" />
    </mask>
    <g
       mask="url(#mask0_36_53)"
       id="g14">
      <rect
         x="253.337"
         y="247.852"
         width="209.863"
         height="174.708"
         fill="#E5727B"
         id="rect3" />
      <path
         d="M240.553 299.927L307.027 284.072C307.027 284.072 351.583 309.153 383.089 311.342C410.107 313.219 451.481 299.927 451.481 299.927V473.694H240.553V299.927Z"
         fill="#C4646F"
         id="path4" />
      <path
         d="M240.553 361.665L316.615 341.598C316.615 341.598 357.267 357.797 384.368 361.665C410.382 365.378 451.481 361.665 451.481 361.665V565.309H240.553V361.665Z"
         fill="#AC536B"
         id="path5" />
      <path
         d="M197.941 387.232L274.003 367.165C274.003 367.165 314.655 383.364 341.756 387.232C367.77 390.945 408.869 387.232 408.869 387.232V590.876H197.941V387.232Z"
         fill="#894566"
         id="path6" />
      <path
         d="M176.636 406.407L252.698 386.34C252.698 386.34 293.35 402.539 320.45 406.407C346.464 410.121 387.564 406.407 387.564 406.407V610.052H176.636V406.407Z"
         fill="#643759"
         id="path7" />
      <mask
         id="mask1_36_53"
         style="mask-type:alpha"
         maskUnits="userSpaceOnUse"
         x="248"
         y="277"
         width="123"
         height="123">
        <circle
           cx="309.5"
           cy="338.5"
           r="61.5"
           fill="#FF782A"
           id="circle7" />
      </mask>
      <g
         mask="url(#mask1_36_53)"
         id="g9">
        <circle
           cx="309.5"
           cy="338.5"
           r="61.5"
           fill="#F77E4A"
           id="circle8" />
        <circle
           cx="309.5"
           cy="317.878"
           r="61.5"
           fill="#FFA454"
           id="circle9" />
      </g>
      <path
         d="M589.869 202.274L604.516 387.795L574.424 493.098C574.424 493.098 583.723 368.646 554.113 311.14C519.184 243.31 446.116 222.126 357.612 258.488C278.885 290.829 245.263 348.986 252.2 420.817C247.732 465.034 324.983 565.945 321.794 584.281C311.926 641.006 193.94 608.766 193.94 608.766L87.1512 580.152L215.297 101.907L589.869 202.274Z"
         fill="#3F425E"
         id="path9" />
      <path
         d="M440.418 64.732L545.864 218.075L572.455 324.316C572.455 324.316 518.281 211.888 463.885 176.891C399.721 135.613 325.85 153.801 267.385 229.544C215.375 296.916 215.337 364.092 257.26 422.83C275.499 463.358 392.855 512.124 399.261 529.598C419.078 583.657 300.779 614.729 300.779 614.729L193.991 643.343L65.8453 165.098L440.418 64.732Z"
         fill="#3B557B"
         id="path10" />
      <path
         d="M201.978 126.156L333.722 170.358L397.267 221.833C397.267 221.833 314.484 179.043 266.314 182.565C209.496 186.722 173.569 230.726 172.664 302.167C171.856 365.716 201.978 405.825 253.357 422.07C282.429 438.073 374.354 414.515 386.018 422.07C422.104 445.441 365.443 517.071 365.443 517.071L314.549 582.069L23.4607 354.143L201.978 126.156Z"
         fill="#2E7596"
         id="path11" />
      <path
         d="M71.3895 248.145L192.346 184.464L272.138 174.237C272.138 174.237 185.452 204.049 155.229 240.707C119.581 283.949 126.472 339.403 176.676 388.588C221.331 432.341 289.756 427.532 320.893 417.726C352.03 407.919 396.062 384.759 409.362 381.595C450.505 371.805 460.529 397.475 460.529 397.475L472.184 477.841L112.271 530.038L71.3895 248.145Z"
         fill="#2B94BA"
         id="path12" />
      <path
         d="M256 197.109C177.21 197.109 113.109 261.21 113.109 340C113.109 418.79 177.21 482.891 256 482.891C334.79 482.891 398.891 418.79 398.891 340C398.891 261.21 334.79 197.109 256 197.109ZM256 185C341.604 185 411 254.396 411 340C411 425.604 341.604 495 256 495C170.396 495 101 425.604 101 340C101 254.396 170.396 185 256 185Z"
         fill="#2B94BA"
         id="path13" />
      <path
         d="M72.5431 266.311C72.5431 266.311 93.3932 248.725 98.8267 263.238C113.59 302.679 108.88 390.746 211.853 430.585C314.826 470.424 375.092 394.566 404.367 389.955C435.389 385.069 455.822 412.796 455.822 412.796L465.251 493.451L104.036 535.681L72.5431 266.311Z"
         fill="#29B4DD"
         id="path14" />
    </g>
  </g>
  <defs
     id="defs15">
    <clipPath
       id="clip0_36_53">
      <rect
         width="310"
         height="310"
         fill="white"
         transform="translate(101 185)"
         id="rect15" />
    </clipPath>
  </defs>
</svg>
