<?xml version="1.0" encoding="UTF-8"?>
<svg id="Layer_2" data-name="Layer 2" xmlns="http://www.w3.org/2000/svg" viewBox="0 0 188.46 137.97">
  <defs>
    <style>
      .cls-1 {
        fill: #231f20;
      }

      .cls-2 {
        fill: #a6a8ab;
      }

      .cls-3 {
        fill: #bd1e2d;
      }

      .cls-4 {
        fill: #dc1f26;
      }
    </style>
  </defs>
  <g id="Layer_1-2" data-name="Layer 1">
    <g>
      <path class="cls-2" d="M133.94,111.11c1.17-1.56,2.44-3.02,3.81-4.39"/>
      <line class="cls-2" x1="142.25" y1="109" x2="141.62" y2="109.67"/>
      <g>
        <path class="cls-4" d="M120.09,47.15c-3.37-2.03-9.49-6.43-12.85-14.18-2.55-5.89-4.68-16.4.86-22.6,2.52-2.82,6.59-4.72,7.49-3.9.91.82-1.69,4.15-2.78,6.99-1.87,4.83-1.08,12.7,10.28,26.09l-3,7.6Z"/>
        <path class="cls-1" d="M120.2,47.48l-.23-.14c-4.16-2.5-9.79-7.01-12.94-14.28-1.53-3.53-2.48-7.63-2.62-11.27-.19-4.86,1-8.75,3.52-11.58,2.13-2.39,5.28-4.08,6.89-4.17.41-.02.73.06.93.25.71.64-.12,2.17-1.18,4.1-.57,1.04-1.15,2.11-1.55,3.13-1.07,2.77-1.01,6.03.18,9.69,1.52,4.66,4.9,10.1,10.05,16.18l.09.1-3.15,7.98ZM114.94,6.5s-.07,0-.1,0c-1.48.08-4.55,1.75-6.57,4.02-5.58,6.26-3.14,17-.82,22.36,3.05,7.03,8.44,11.44,12.52,13.93l2.85-7.22c-5.14-6.08-8.52-11.54-10.05-16.23-1.22-3.76-1.28-7.12-.18-9.99.41-1.05,1-2.14,1.57-3.19.84-1.55,1.72-3.14,1.27-3.55-.1-.09-.27-.13-.5-.13Z"/>
      </g>
      <g>
        <path class="cls-2" d="M177.4,9.52c-5.43-5.39-12.75-8.47-20.43-8.6-7.68-.13-15.1,2.7-20.71,7.9-.28.27-.5.58-.66.94s-.23.74-.23,1.12.08.77.23,1.12c.15.35.38.67.66.94l3.57,3.62c.48.48,1.12.76,1.8.81.68.05,1.35-.15,1.89-.56,3.42-2.71,7.77-4.01,12.13-3.61,4.36.39,8.4,2.45,11.27,5.73,2.87,3.28,4.35,7.54,4.14,11.88-.22,4.34-2.12,8.43-5.3,11.42C142.26,65.54,110.9.17,39.7,33.86c-1.2.57-2.27,1.39-3.14,2.39-.87,1-1.52,2.18-1.91,3.44-.39,1.27-.51,2.6-.36,3.91.15,1.31.58,2.58,1.26,3.73l12.22,20.94c1.27,2.18,3.35,3.78,5.8,4.45s5.06.35,7.27-.89l.29-.16-.23.16,5.35-2.97c6.03-3.72,11.74-7.94,17.05-12.62.53-.48,1.21-.75,1.92-.77.71-.02,1.41.21,1.96.65.3.25.54.56.72.91.17.35.27.73.28,1.12.01.39-.06.78-.21,1.14-.15.36-.37.68-.66.95-5.59,5-11.62,9.5-18.01,13.45h-.19s-5.41,3.01-5.41,3.01c-2.29,1.27-4.87,1.94-7.49,1.94-2.72,0-5.39-.69-7.74-2.03-2.36-1.34-4.32-3.28-5.68-5.61l-11.56-19.79C9.14,66.81-4.43,96.8,2.92,134.77c.12.64.46,1.22.97,1.64.5.42,1.14.65,1.79.65h13.03c.72.02,1.42-.24,1.95-.71.54-.47.87-1.13.93-1.84.61-4.6,2.89-8.82,6.4-11.88,3.51-3.06,8.03-4.75,12.7-4.75s9.19,1.69,12.7,4.75c3.51,3.06,5.79,7.28,6.4,11.88.08.68.41,1.3.92,1.75.51.45,1.17.7,1.86.7h12.74c.68,0,1.34-.26,1.85-.71.51-.45.84-1.07.93-1.74.61-4.6,2.89-8.82,6.4-11.88,3.51-3.06,8.03-4.75,12.7-4.75,4.67,0,9.19,1.69,12.7,4.75,3.51,3.06,5.79,7.28,6.4,11.88.09.67.41,1.29.93,1.74.51.45,1.17.7,1.85.71h12.65c.74,0,1.45-.29,1.98-.81.53-.52.83-1.22.84-1.95.29-17.71,5.1-38.06,18.82-48.25,47.51-35.28,35.02-65.51,24.02-76.43Z"/>
        <path class="cls-1" d="M18.78,137.97s-.06,0-.09,0H5.68c-.87,0-1.71-.31-2.37-.86-.67-.55-1.12-1.32-1.28-2.17C.23,125.65-.38,116.53.23,107.83c.58-8.27,2.24-16.19,4.95-23.54,5.15-13.97,13.98-25.67,25.53-33.83l.81-.57,12.06,20.65c1.28,2.19,3.13,4.01,5.34,5.28,2.2,1.25,4.7,1.91,7.24,1.91.03,0,.06,0,.08,0,2.46,0,4.88-.63,7.02-1.82l5.62-3.12h.16c6.24-3.87,12.18-8.32,17.65-13.21.19-.18.33-.39.43-.63.1-.24.15-.5.14-.76,0-.26-.07-.51-.19-.75-.11-.23-.27-.44-.47-.6-.38-.3-.87-.46-1.36-.45-.49.02-.97.21-1.33.54h0c-5.34,4.71-11.12,8.99-17.18,12.72l-.04.02-5.35,2.97-.02-.03-.04.02c-2.44,1.36-5.27,1.71-7.96.98-2.7-.74-4.95-2.47-6.34-4.87l-12.22-20.94c-.74-1.25-1.2-2.63-1.37-4.08-.17-1.45-.04-2.89.39-4.29.43-1.4,1.13-2.66,2.09-3.77.96-1.1,2.11-1.99,3.44-2.62,9.86-4.67,19.63-7.72,29.02-9.09,8.32-1.21,16.34-1.15,24.53.17,14.94,2.41,27.01,8.51,37.66,13.89,14.69,7.42,25.31,12.79,34.61,3.57l.02-.02c3.03-2.84,4.81-6.67,5.01-10.8.21-4.13-1.18-8.12-3.91-11.24-2.73-3.12-6.52-5.05-10.67-5.42-4.15-.37-8.23.84-11.48,3.42h-.02c-.72.55-1.61.82-2.5.76-.9-.06-1.74-.44-2.38-1.07h0s-3.56-3.62-3.56-3.62c-.37-.35-.65-.76-.86-1.23-.2-.47-.31-.97-.31-1.48s.1-1.01.31-1.48c.2-.47.5-.89.87-1.24,2.88-2.67,6.21-4.74,9.88-6.14,3.67-1.4,7.53-2.08,11.47-2.01,3.94.07,7.77.88,11.39,2.4,3.62,1.53,6.87,3.7,9.66,6.47h0c2.18,2.16,5.26,5.89,7.55,11.37,2.26,5.39,3.19,11.12,2.76,17.03-.55,7.62-3.35,15.37-8.33,23.04-5.79,8.92-14.58,17.79-26.11,26.36-16.14,12-18.28,37.24-18.45,47.54-.01.98-.41,1.9-1.11,2.59-.7.69-1.63,1.07-2.62,1.07h0s-12.65,0-12.65,0c-.91,0-1.78-.34-2.46-.93-.68-.6-1.11-1.42-1.23-2.31-.58-4.38-2.75-8.39-6.1-11.31-3.35-2.92-7.65-4.52-12.11-4.52-4.46,0-8.76,1.61-12.11,4.52-3.35,2.91-5.51,6.93-6.1,11.31-.11.89-.55,1.71-1.23,2.31-.68.6-1.55.93-2.45.93h-12.74c-.91,0-1.78-.33-2.46-.93-.68-.6-1.11-1.42-1.22-2.32-.58-4.38-2.75-8.4-6.1-11.31-3.35-2.92-7.65-4.52-12.11-4.52s-8.76,1.61-12.11,4.52c-3.34,2.91-5.51,6.92-6.1,11.3-.09.94-.53,1.8-1.23,2.42-.69.61-1.56.94-2.48.94ZM30.95,52.52C7.32,69.74-2.82,100.33,3.81,134.6c.08.43.31.83.65,1.11.34.28.77.44,1.22.44h13.05c.49.01.96-.16,1.32-.48.36-.32.59-.76.63-1.24v-.04c.65-4.82,3.03-9.24,6.71-12.45,3.68-3.2,8.41-4.97,13.3-4.97s9.62,1.76,13.3,4.97c3.68,3.21,6.07,7.63,6.71,12.45h0c.05.47.27.88.62,1.19.35.31.79.47,1.26.47h12.74c.46,0,.9-.17,1.25-.48.35-.3.57-.72.62-1.18.64-4.83,3.02-9.25,6.71-12.45,3.68-3.2,8.41-4.97,13.3-4.97s9.62,1.76,13.3,4.97c3.68,3.21,6.07,7.63,6.71,12.45.06.46.28.88.63,1.18.35.31.79.48,1.26.48h12.65s0,0,0,0c.51,0,.98-.19,1.34-.55.36-.35.56-.82.57-1.32.16-9.88,1.69-19.3,4.42-27.23,3.31-9.61,8.27-16.92,14.76-21.74,20.91-15.53,32.57-32.15,33.71-48.07,1.07-14.96-7.22-24.43-9.78-26.98h0c-5.29-5.25-12.32-8.21-19.8-8.34-7.48-.13-14.61,2.59-20.08,7.66-.19.18-.34.39-.44.63-.1.24-.16.5-.16.76s.05.52.16.76c.1.24.26.46.45.64l.02.02,3.56,3.62c.33.32.76.51,1.22.54.46.03.91-.1,1.28-.37,3.62-2.87,8.15-4.22,12.77-3.8,4.62.42,8.83,2.56,11.88,6.04,3.04,3.48,4.59,7.93,4.36,12.53-.23,4.6-2.21,8.87-5.58,12.03-3.67,3.64-7.71,5.4-12.47,5.4-1.37,0-2.79-.15-4.29-.43-5.97-1.15-12.45-4.42-19.94-8.21-20.42-10.32-48.39-24.46-89.61-4.95-1.09.52-2.05,1.25-2.84,2.16-.79.91-1.37,1.96-1.73,3.11-.35,1.15-.46,2.34-.32,3.54.14,1.2.52,2.33,1.14,3.37l12.22,20.95c1.15,1.99,3.02,3.42,5.25,4.03,2.23.61,4.57.32,6.59-.81l.29-.16.02.03,5.1-2.82c5.96-3.68,11.65-7.89,16.91-12.52.69-.62,1.57-.97,2.49-1,.93-.03,1.83.27,2.56.85h.02c.4.35.72.75.95,1.22.23.47.35.97.37,1.49.02.52-.08,1.03-.28,1.51-.2.48-.49.91-.88,1.26l-.02.02c-5.62,5.02-11.72,9.58-18.14,13.54l-.22.14h-.21s-5.21,2.89-5.21,2.89c-2.42,1.35-5.16,2.05-7.93,2.05-2.86.01-5.7-.73-8.19-2.15-2.49-1.42-4.57-3.47-6.01-5.94l-11.05-18.93Z"/>
      </g>
      <g>
        <path class="cls-2" d="M137.52,89.16c12.7,1.83,16.67,2.71,9.15,4.73s-7.66,1.47-7.66,1.47"/>
        <path class="cls-1" d="M139.39,95.7c-.41,0-.59-.09-.64-.27l.53-.14c-.03-.1-.1-.14-.12-.15.08.03.98.23,7.45-1.51,1.3-.35,2.23-.66,2.83-.94.76-.35.75-.55.75-.55,0-.08-.18-.5-3.16-1.14-2.2-.47-5.41-.96-9.55-1.56l.08-.54c10.4,1.5,13.11,2.16,13.18,3.21.03.58-.63,1.15-3.99,2.05-3.13.84-5.38,1.35-6.69,1.5-.27.03-.49.05-.66.05Z"/>
      </g>
      <g>
        <path class="cls-3" d="M125.45,70.05c3.55.26,6.77-.96,9.41-3.29.93-.82,1.99-1.98.56-3.12-.89-.71-2.09-.83-3.35-.35-8.09,3.01-8.13,3.01-12.25-3.19-1.16-1.75-2.94-2.57-4.97-1.94-2.13.66-1.64,2.58-1.37,4.08.87,4.77,5.39,7.74,11.98,7.82Z"/>
        <path class="cls-1" d="M126.38,70.34c-.31,0-.63-.01-.95-.03-3.28-.04-6.14-.8-8.27-2.19-2.15-1.41-3.52-3.43-3.96-5.84-.01-.08-.03-.16-.05-.25-.27-1.45-.64-3.43,1.6-4.13,2.06-.64,3.98.11,5.27,2.05,2.02,3.04,3.04,4.57,4.49,4.95,1.46.38,3.46-.37,7.46-1.85,1.37-.51,2.65-.37,3.61.39.52.41.79.87.8,1.36.02.83-.67,1.56-1.35,2.16-2.52,2.23-5.49,3.38-8.65,3.38ZM116.16,58.21c-.4,0-.82.06-1.24.2-1.79.56-1.51,2.07-1.24,3.53.02.08.03.17.05.25.85,4.69,5.24,7.53,11.73,7.6h.02c3.36.25,6.55-.87,9.22-3.22.55-.49,1.19-1.13,1.17-1.75,0-.34-.21-.65-.6-.97-.81-.64-1.91-.76-3.1-.31-4.09,1.53-6.15,2.29-7.77,1.87-1.64-.43-2.7-2.01-4.79-5.16-.88-1.33-2.09-2.03-3.43-2.03Z"/>
      </g>
      <g>
        <path class="cls-4" d="M107.52,42.87c-3.37-2.03-9.49-6.43-12.85-14.18-2.55-5.89-4.68-16.4.86-22.6,2.52-2.82,6.59-4.72,7.49-3.9.91.82-1.69,4.15-2.78,6.99-1.87,4.83-1.08,12.7,10.28,26.09l-3,7.6Z"/>
        <path class="cls-1" d="M107.73,43.47l-.41-.25c-4.18-2.52-9.84-7.05-13.01-14.37-1.54-3.55-2.5-7.68-2.64-11.33-.19-4.91,1.01-8.84,3.57-11.7,2.16-2.42,5.37-4.14,7.01-4.23.46-.02.82.07,1.06.29.82.74,0,2.24-1.14,4.32-.56,1.03-1.15,2.1-1.54,3.11-1.05,2.73-.99,5.95.19,9.56,1.51,4.64,4.88,10.06,10.02,16.12l.16.19-3.26,8.28ZM102.38,2.4s-.06,0-.09,0c-1.45.08-4.45,1.72-6.44,3.96-5.52,6.19-3.09,16.85-.79,22.17,2.98,6.88,8.23,11.24,12.27,13.74l2.73-6.92c-5.12-6.06-8.49-11.52-10.02-16.21-1.24-3.8-1.3-7.2-.17-10.11.41-1.06,1.03-2.2,1.58-3.21.47-.87.92-1.69,1.17-2.33.3-.79.17-.97.14-.99-.02-.02-.12-.09-.37-.09Z"/>
      </g>
    </g>
  </g>
</svg>