<?xml version="1.0" encoding="UTF-8" standalone="no"?>
<svg
   width="309.99997"
   height="309.99997"
   viewBox="0 0 309.99997 309.99997"
   fill="none"
   version="1.1"
   id="svg13"
   sodipodi:docname="v3_logo_svg.svg"
   inkscape:export-filename="v3_logo_svg.png"
   inkscape:export-xdpi="371.61295"
   inkscape:export-ydpi="371.61295"
   inkscape:version="1.4 (e7c3feb100, 2024-10-09)"
   xmlns:inkscape="http://www.inkscape.org/namespaces/inkscape"
   xmlns:sodipodi="http://sodipodi.sourceforge.net/DTD/sodipodi-0.dtd"
   xmlns="http://www.w3.org/2000/svg"
   xmlns:svg="http://www.w3.org/2000/svg">
  <sodipodi:namedview
     id="namedview13"
     pagecolor="#ffffff"
     bordercolor="#cccccc"
     borderopacity="1"
     inkscape:showpageshadow="0"
     inkscape:pageopacity="1"
     inkscape:pagecheckerboard="0"
     inkscape:deskcolor="#d1d1d1"
     inkscape:zoom="1.3914146"
     inkscape:cx="144.4573"
     inkscape:cy="218.12334"
     inkscape:window-width="1920"
     inkscape:window-height="1008"
     inkscape:window-x="0"
     inkscape:window-y="0"
     inkscape:window-maximized="1"
     inkscape:current-layer="svg13" />
  <g
     clip-path="url(#clip0_36_29)"
     id="g13"
     transform="translate(-555,-185)">
    <mask
       id="mask0_36_29"
       maskUnits="userSpaceOnUse"
       x="555"
       y="185"
       width="310"
       height="311">
      <path
         d="m 710,185 c 30.656,0 60.624,9.091 86.113,26.122 25.49,17.032 45.357,41.24 57.088,69.562 11.732,28.323 14.801,59.488 8.821,89.555 -5.981,30.067 -20.743,57.685 -42.42,79.363 -21.678,21.677 -49.296,36.439 -79.363,42.42 -30.067,5.98 -61.232,2.911 -89.555,-8.821 C 622.362,471.47 598.154,451.603 581.122,426.113 564.091,400.624 555,370.656 555,340 555,298.891 571.33,259.467 600.398,230.398 629.467,201.33 668.891,185 710,185 Z"
         fill="#ffffff"
         id="path1" />
    </mask>
    <g
       mask="url(#mask0_36_29)"
       id="g12">
      <rect
         x="707.33698"
         y="247.85201"
         width="209.86301"
         height="174.70799"
         fill="#e5727b"
         id="rect1" />
      <path
         d="m 694.553,299.927 66.474,-15.855 c 0,0 44.556,25.081 76.062,27.27 27.018,1.877 68.392,-11.415 68.392,-11.415 V 473.694 H 694.553 Z"
         fill="#c4646f"
         id="path2" />
      <path
         d="m 694.553,361.665 76.062,-20.067 c 0,0 40.652,16.199 67.753,20.067 26.014,3.713 67.113,0 67.113,0 V 565.309 H 694.553 Z"
         fill="#ac536b"
         id="path3" />
      <path
         d="m 651.941,387.232 76.062,-20.067 c 0,0 40.652,16.199 67.753,20.067 26.014,3.713 67.113,0 67.113,0 V 590.876 H 651.941 Z"
         fill="#894566"
         id="path4" />
      <path
         d="m 630.636,406.407 76.062,-20.067 c 0,0 40.652,16.199 67.752,20.067 26.014,3.714 67.114,0 67.114,0 V 610.052 H 630.636 Z"
         fill="#643759"
         id="path5" />
      <mask
         id="mask1_36_29"
         maskUnits="userSpaceOnUse"
         x="702"
         y="277"
         width="123"
         height="123">
        <circle
           cx="763.5"
           cy="338.5"
           r="61.5"
           fill="#ff782a"
           id="circle5" />
      </mask>
      <g
         mask="url(#mask1_36_29)"
         id="g7">
        <circle
           cx="763.5"
           cy="338.5"
           r="61.5"
           fill="#f77e4a"
           id="circle6" />
        <circle
           cx="763.5"
           cy="317.87799"
           r="61.5"
           fill="#ffa454"
           id="circle7" />
      </g>
      <path
         d="m 1043.87,202.274 14.65,185.521 -30.1,105.303 c 0,0 9.3,-124.452 -20.31,-181.958 -34.926,-67.83 -107.994,-89.014 -196.498,-52.652 -78.727,32.341 -112.349,90.498 -105.412,162.329 -4.468,44.217 72.783,145.128 69.594,163.464 -9.868,56.725 -127.854,24.485 -127.854,24.485 L 541.151,580.152 669.297,101.907 Z"
         fill="#3f425e"
         id="path7" />
      <path
         d="m 894.418,64.732 105.446,153.343 26.586,106.241 c 0,0 -54.169,-112.428 -108.565,-147.425 -64.164,-41.278 -138.035,-23.09 -196.5,52.653 -52.01,67.372 -52.048,134.548 -10.125,193.286 18.239,40.528 135.595,89.294 142.001,106.768 19.817,54.059 -98.482,85.131 -98.482,85.131 L 647.991,643.343 519.845,165.098 Z"
         fill="#3b557b"
         id="path8" />
      <path
         d="m 655.978,126.156 131.744,44.202 63.545,51.475 c 0,0 -82.783,-42.79 -130.953,-39.268 -56.818,4.157 -92.745,48.161 -93.65,119.602 -0.808,63.548 29.314,103.658 80.693,119.903 29.072,16.003 120.997,-7.555 132.661,0 36.086,23.371 -20.575,95.001 -20.575,95.001 L 768.549,582.069 477.461,354.143 Z"
         fill="#2e7596"
         id="path9" />
      <path
         d="m 525.39,248.145 120.956,-63.681 79.792,-10.227 c 0,0 -86.686,29.812 -116.909,66.47 -35.648,43.242 -28.757,98.696 21.447,147.881 44.655,43.753 113.08,38.944 144.217,29.138 31.137,-9.807 75.169,-32.967 88.469,-36.131 41.143,-9.79 51.167,15.88 51.167,15.88 l 11.655,80.366 -359.913,52.197 z"
         fill="#2b94ba"
         id="path10" />
      <path
         d="m 710,197.109 c -78.79,0 -142.891,64.101 -142.891,142.891 0,78.79 64.101,142.891 142.891,142.891 78.79,0 142.891,-64.101 142.891,-142.891 C 852.891,261.21 788.79,197.109 710,197.109 Z M 710,185 c 85.604,0 155,69.396 155,155 0,85.604 -69.396,155 -155,155 -85.604,0 -155,-69.396 -155,-155 0,-85.604 69.396,-155 155,-155 z"
         fill="#2b94ba"
         id="path11" />
      <path
         d="m 526.543,266.311 c 0,0 20.85,-17.586 26.284,-3.073 14.763,39.441 10.053,127.508 113.026,167.347 102.973,39.839 163.239,-36.019 192.514,-40.63 31.022,-4.886 51.455,22.841 51.455,22.841 l 9.429,80.655 -361.215,42.23 z"
         fill="#29b4dd"
         id="path12" />
    </g>
  </g>
  <defs
     id="defs13">
    <clipPath
       id="clip0_36_29">
      <rect
         width="310"
         height="310"
         fill="#ffffff"
         transform="translate(555,185)"
         id="rect13"
         x="0"
         y="0" />
    </clipPath>
  </defs>
</svg>
